<svg width="243" height="243" viewBox="0 0 243 243" fill="none" xmlns="http://www.w3.org/2000/svg">
<circle cx="166.877" cy="168.291" r="21.5" transform="rotate(45 166.877 168.291)" fill="white" stroke="black"/>
<circle cx="183.848" cy="131.522" r="21.5" transform="rotate(45 183.848 131.522)" fill="white" stroke="black"/>
<circle cx="178.191" cy="94.7523" r="21.5" transform="rotate(45 178.191 94.7523)" fill="white" stroke="black"/>
<circle cx="152.735" cy="65.0536" r="21.5" transform="rotate(45 152.735 65.0536)" fill="white" stroke="black"/>
<circle cx="114.551" cy="57.9828" r="21.5" transform="rotate(45 114.551 57.9828)" fill="white" stroke="black"/>
<circle cx="77.7817" cy="72.1249" r="21.5" transform="rotate(45 77.7817 72.1249)" fill="white" stroke="black"/>
<circle cx="57.9828" cy="106.066" r="21.5" transform="rotate(45 57.9828 106.066)" fill="white" stroke="black"/>
<circle cx="57.9828" cy="145.664" r="21.5" transform="rotate(45 57.9828 145.664)" fill="white" stroke="black"/>
<circle cx="89.0955" cy="176.777" r="21.5" transform="rotate(45 89.0955 176.777)" fill="white" stroke="black"/>
<circle cx="129.401" cy="181.726" r="21.5" transform="rotate(45 129.401 181.726)" fill="white" stroke="black"/>
<ellipse cx="123.39" cy="118.44" rx="71" ry="62.5" transform="rotate(45 123.39 118.44)" fill="white"/>
</svg>
