<svg width="100" height="100" viewBox="0 0 100 100" fill="none" xmlns="http://www.w3.org/2000/svg">
<mask id="path-1-inside-1_2_10" fill="white">
<path d="M66.3359 13.1468C68.5042 8.25506 66.2984 2.42891 61.0806 1.24316C52.8678 -0.623214 44.2618 -0.396214 36.0726 1.97889C24.7597 5.25993 14.9684 12.4296 8.42488 22.2239C1.88136 32.0183 -0.994208 43.8083 0.305137 55.5155C1.60448 67.2227 6.99531 78.0952 15.5272 86.2164C24.0591 94.3375 35.1843 99.1858 46.9413 99.9064C58.6983 100.627 70.3322 97.1736 79.792 90.1552C89.2518 83.1367 95.9301 73.0038 98.6494 61.543C100.618 53.2466 100.42 44.6399 98.1513 36.5291C96.7097 31.3761 90.7819 29.4602 86.003 31.8671C81.2241 34.274 79.4778 40.1278 80.2783 45.4184C80.8609 49.2683 80.7084 53.2234 79.7958 57.0696C78.1303 64.0889 74.0402 70.2949 68.2464 74.5934C62.4527 78.8919 55.3273 81.007 48.1266 80.5657C40.9259 80.1243 34.1122 77.155 28.8868 72.1811C23.6613 67.2072 20.3597 60.5482 19.5639 53.378C18.7681 46.2078 20.5293 38.9869 24.5369 32.9883C28.5445 26.9896 34.5413 22.5985 41.47 20.589C45.2666 19.4879 49.2094 19.1406 53.0833 19.5326C58.4069 20.0713 64.1675 18.0386 66.3359 13.1468Z"/>
</mask>
<path d="M66.3359 13.1468C68.5042 8.25506 66.2984 2.42891 61.0806 1.24316C52.8678 -0.623214 44.2618 -0.396214 36.0726 1.97889C24.7597 5.25993 14.9684 12.4296 8.42488 22.2239C1.88136 32.0183 -0.994208 43.8083 0.305137 55.5155C1.60448 67.2227 6.99531 78.0952 15.5272 86.2164C24.0591 94.3375 35.1843 99.1858 46.9413 99.9064C58.6983 100.627 70.3322 97.1736 79.792 90.1552C89.2518 83.1367 95.9301 73.0038 98.6494 61.543C100.618 53.2466 100.42 44.6399 98.1513 36.5291C96.7097 31.3761 90.7819 29.4602 86.003 31.8671C81.2241 34.274 79.4778 40.1278 80.2783 45.4184C80.8609 49.2683 80.7084 53.2234 79.7958 57.0696C78.1303 64.0889 74.0402 70.2949 68.2464 74.5934C62.4527 78.8919 55.3273 81.007 48.1266 80.5657C40.9259 80.1243 34.1122 77.155 28.8868 72.1811C23.6613 67.2072 20.3597 60.5482 19.5639 53.378C18.7681 46.2078 20.5293 38.9869 24.5369 32.9883C28.5445 26.9896 34.5413 22.5985 41.47 20.589C45.2666 19.4879 49.2094 19.1406 53.0833 19.5326C58.4069 20.0713 64.1675 18.0386 66.3359 13.1468Z" fill="#FFFFFE" stroke="black" stroke-width="2" mask="url(#path-1-inside-1_2_10)"/>
</svg>
