<svg width="103" height="53" viewBox="0 0 103 53" fill="none" xmlns="http://www.w3.org/2000/svg">
<path d="M1.2316 23.5915C0.423949 18.5544 3.73881 13.7786 8.7403 12.7736L30.8277 8.33547C32.378 8.02395 33.9816 8.10436 35.493 8.56941L42.596 10.755C44.9516 11.4798 47.487 11.3529 49.7585 10.3965L55.0382 8.17342C55.589 7.9415 56.1605 7.76208 56.745 7.63754L87.7669 1.02758C93.0843 -0.105409 98.2661 3.44682 99.1269 8.81498L102.212 28.0582C103.099 33.5868 99.0357 38.6791 93.4482 39.0422L67.7305 40.7136C66.3123 40.8058 64.9275 41.1849 63.6602 41.828L56.9831 45.2162C55.6509 45.8922 54.1781 46.2445 52.6842 46.2445L41.3481 46.2444C40.558 46.2444 39.7705 46.3336 39.0004 46.5102L16.0126 51.7834C10.6566 53.012 5.37837 49.4537 4.50839 44.0279L1.2316 23.5915Z" fill="#0D91FF" stroke="black"/>
</svg>
